<?xml version="1.0" standalone="no"?>
<!DOCTYPE svg PUBLIC "-//W3C//DTD SVG 1.1//EN" "http://www.w3.org/Graphics/SVG/1.1/DTD/svg11.dtd">
<svg version="1.1" xmlns="http://www.w3.org/2000/svg" viewBox="0 0 382.46484375 287.6875" width="764.9296875" height="575.375"><!-- svg-source:excalidraw --><metadata></metadata><defs><style class="style-fonts">
      </style></defs><g stroke-linecap="round" transform="translate(10 10) rotate(0 181.232421875 25.2109375)"><path d="M12.61 0 C94.3 -1.01, 171.73 -3.69, 349.86 0 C359.6 3.26, 360.46 6.06, 362.46 12.61 C362.54 20.79, 364.65 32.64, 362.46 37.82 C362.59 47.73, 356.2 51.35, 349.86 50.42 C247.79 52.37, 146 54.13, 12.61 50.42 C3.54 51.71, -2.39 45.75, 0 37.82 C-2.5 30.23, -0.51 16.06, 0 12.61 C2.55 4.69, 6.34 2.27, 12.61 0" stroke="none" stroke-width="0" fill="#e03131"></path><path d="M12.61 0 C91.97 2.25, 169.35 2.68, 349.86 0 M12.61 0 C109.06 2.25, 205.13 1.35, 349.86 0 M349.86 0 C358.98 1.08, 360.77 4.67, 362.46 12.61 M349.86 0 C358.04 0.16, 361.78 2.92, 362.46 12.61 M362.46 12.61 C363.83 18.49, 360.72 23.47, 362.46 37.82 M362.46 12.61 C361.48 18.65, 363.17 24.74, 362.46 37.82 M362.46 37.82 C363.42 47.64, 358.37 52.38, 349.86 50.42 M362.46 37.82 C360.48 48.51, 358.54 49.54, 349.86 50.42 M349.86 50.42 C255.53 51.3, 162.22 52.43, 12.61 50.42 M349.86 50.42 C227.26 49.91, 103.94 49.74, 12.61 50.42 M12.61 50.42 C3.39 51.52, 1.73 47.29, 0 37.82 M12.61 50.42 C6.42 51.26, -2.13 48.16, 0 37.82 M0 37.82 C0.46 31.61, -0.89 26.64, 0 12.61 M0 37.82 C0.02 32.39, -0.6 25.12, 0 12.61 M0 12.61 C0.74 3.72, 4.54 -1.15, 12.61 0 M0 12.61 C0.87 1.94, 5.32 -0.47, 12.61 0" stroke="#e03131" stroke-width="2" fill="none"></path></g><g stroke-linecap="round" transform="translate(27.55859375 58.47265625) rotate(0 22.271484375 79.044921875)"><path d="M11.14 0 C16.33 -3.31, 25.53 -3.46, 33.41 0 C41.32 -1.41, 41.75 7.25, 44.54 11.14 C47 43.71, 43.1 81.33, 44.54 146.95 C42.53 154.43, 38.06 156.66, 33.41 158.09 C26.65 160.04, 16.82 161.86, 11.14 158.09 C4.47 158.04, 2.93 156.51, 0 146.95 C0.97 103.54, 1.53 64.96, 0 11.14 C3 4.08, 0.15 -1.64, 11.14 0" stroke="none" stroke-width="0" fill="#e03131"></path><path d="M11.14 0 C19.1 -0.94, 29.75 0.92, 33.41 0 M11.14 0 C17.41 -0.75, 22.74 0.75, 33.41 0 M33.41 0 C38.99 -1.87, 43.53 2.42, 44.54 11.14 M33.41 0 C42.39 0.57, 43.77 4.18, 44.54 11.14 M44.54 11.14 C43.5 41.67, 43.49 75.64, 44.54 146.95 M44.54 11.14 C45.37 64.64, 45.75 117.33, 44.54 146.95 M44.54 146.95 C43.52 155.82, 41.25 156.4, 33.41 158.09 M44.54 146.95 C45.83 153.21, 42.84 157.28, 33.41 158.09 M33.41 158.09 C28.69 157.7, 18.61 157.31, 11.14 158.09 M33.41 158.09 C27.04 157.25, 19.02 158.81, 11.14 158.09 M11.14 158.09 C3.36 158.41, 0.39 155.26, 0 146.95 M11.14 158.09 C5.62 159.03, 1.97 154.22, 0 146.95 M0 146.95 C0.46 104.04, -0.62 57.63, 0 11.14 M0 146.95 C1.05 94.27, 0.24 41.02, 0 11.14 M0 11.14 C-0.9 2.22, 5.41 -0.17, 11.14 0 M0 11.14 C-1.6 3.79, 4.52 -0.17, 11.14 0" stroke="#e03131" stroke-width="2" fill="none"></path></g><g stroke-linecap="round" transform="translate(114.517578125 55.2265625) rotate(0 22.4921875 110.296875)"><path d="M11.25 0 C15.44 1.27, 25.61 1.73, 33.74 0 C43.08 -0.68, 41.87 1.9, 44.98 11.25 C47.41 58.06, 42.03 105.21, 44.98 209.35 C47.57 216.21, 39.95 220, 33.74 220.59 C25.52 223.06, 14.77 222.6, 11.25 220.59 C4.28 220.38, 1.31 217.2, 0 209.35 C0.51 150.54, 2.28 100.9, 0 11.25 C2.78 6.2, 5.37 -2.04, 11.25 0" stroke="none" stroke-width="0" fill="#e03131"></path><path d="M11.25 0 C16.06 -0.36, 21.97 -0.49, 33.74 0 M11.25 0 C17.3 1.01, 23.35 0.09, 33.74 0 M33.74 0 C41.48 0.1, 44.36 2.43, 44.98 11.25 M33.74 0 C41.88 -1.87, 44.7 2.04, 44.98 11.25 M44.98 11.25 C42.5 75.41, 44.69 141.01, 44.98 209.35 M44.98 11.25 C45.48 83.12, 44.53 154.43, 44.98 209.35 M44.98 209.35 C45.19 216.46, 39.85 219.59, 33.74 220.59 M44.98 209.35 C45.01 215.67, 41.56 222.29, 33.74 220.59 M33.74 220.59 C25.35 220, 16.73 219.57, 11.25 220.59 M33.74 220.59 C24.63 221.17, 17.75 219.81, 11.25 220.59 M11.25 220.59 C2.25 221.97, 0.38 216.36, 0 209.35 M11.25 220.59 C1.65 222.04, 0.72 214.69, 0 209.35 M0 209.35 C-0.25 166.86, -0.16 127.09, 0 11.25 M0 209.35 C-2.55 146.9, -1.18 84.87, 0 11.25 M0 11.25 C0.51 3.83, 4.45 -1.24, 11.25 0 M0 11.25 C0.78 4.43, 2.73 1.94, 11.25 0" stroke="#e03131" stroke-width="2" fill="none"></path></g><g stroke-linecap="round" transform="translate(213.99609375 57.09375) rotate(0 22.4921875 110.296875)"><path d="M11.25 0 C16.82 -2.4, 18.17 2.83, 33.74 0 C43.49 0.12, 44.58 4.13, 44.98 11.25 C48.85 74.53, 43.72 136.79, 44.98 209.35 C44.01 214.04, 39.12 221.41, 33.74 220.59 C27.39 218.58, 25.35 219.72, 11.25 220.59 C5.91 223.07, 1.45 219.64, 0 209.35 C-3.56 127.46, -3.39 49.71, 0 11.25 C0.54 1.34, 3.49 -2.49, 11.25 0" stroke="none" stroke-width="0" fill="#e03131"></path><path d="M11.25 0 C17.98 0.64, 26.81 1.54, 33.74 0 M11.25 0 C19.14 0.98, 27.66 -0.78, 33.74 0 M33.74 0 C42.05 0.15, 44.63 5.19, 44.98 11.25 M33.74 0 C41.15 -0.05, 45.7 1.7, 44.98 11.25 M44.98 11.25 C46.99 64.37, 45.7 119.56, 44.98 209.35 M44.98 11.25 C46.55 70.81, 45.84 128.25, 44.98 209.35 M44.98 209.35 C43.17 217.9, 42.7 220.02, 33.74 220.59 M44.98 209.35 C43.71 214.74, 42.42 222.52, 33.74 220.59 M33.74 220.59 C30.23 220.7, 25.96 220.01, 11.25 220.59 M33.74 220.59 C24.48 219.91, 16.98 221.36, 11.25 220.59 M11.25 220.59 C5.72 219.08, 0.06 217.05, 0 209.35 M11.25 220.59 C3.2 219.87, 1.76 216.06, 0 209.35 M0 209.35 C-0.68 149.89, -0.29 90.73, 0 11.25 M0 209.35 C-0.8 145.61, -0.81 82.33, 0 11.25 M0 11.25 C0.34 2.24, 4.18 -1.54, 11.25 0 M0 11.25 C0.77 5.98, 3.52 0.2, 11.25 0" stroke="#e03131" stroke-width="2" fill="none"></path></g><g stroke-linecap="round" transform="translate(309.45703125 54.72265625) rotate(0 21.212890625 80.615234375)"><path d="M10.61 0 C12.88 2.58, 20.36 -1.18, 31.82 0 C38.31 3.44, 45.96 5.9, 42.43 10.61 C41.08 59.74, 42.63 110.66, 42.43 150.62 C45.6 156.54, 38.62 164.79, 31.82 161.23 C24.71 163.7, 18.53 163.46, 10.61 161.23 C1.51 161.63, 1.03 159.75, 0 150.62 C-0.59 111.05, -2.09 69.43, 0 10.61 C2.28 6.13, 3.8 1.06, 10.61 0" stroke="none" stroke-width="0" fill="#e03131"></path><path d="M10.61 0 C17.08 0.47, 23.87 0.2, 31.82 0 M10.61 0 C17.66 0.47, 22.62 0.61, 31.82 0 M31.82 0 C39.08 0.05, 40.48 3.3, 42.43 10.61 M31.82 0 C40.54 -2.08, 41.48 5.81, 42.43 10.61 M42.43 10.61 C43.82 43.8, 41.67 78.52, 42.43 150.62 M42.43 10.61 C41.9 56.08, 42.75 102.63, 42.43 150.62 M42.43 150.62 C42.42 156.12, 37.06 159.78, 31.82 161.23 M42.43 150.62 C41.48 159.88, 38.28 162.41, 31.82 161.23 M31.82 161.23 C27.56 160.57, 19.83 163.05, 10.61 161.23 M31.82 161.23 C26.02 161.89, 19.17 161.38, 10.61 161.23 M10.61 161.23 C2.53 162.83, -1.29 157.22, 0 150.62 M10.61 161.23 C4.82 160.25, 1.43 157.59, 0 150.62 M0 150.62 C-2.43 116.23, 0.63 79.77, 0 10.61 M0 150.62 C-0.15 119.13, 0.32 87.4, 0 10.61 M0 10.61 C0.99 1.54, 3.85 -0.24, 10.61 0 M0 10.61 C1.98 1.98, 5.65 -2.27, 10.61 0" stroke="#e03131" stroke-width="2" fill="none"></path></g></svg>