<svg xmlns="http://www.w3.org/2000/svg" width="200" height="200" viewBox="0 0 200 200">
  <path d="M 30 30 Q 30 20 40 20 Q 160 20 170 20 Q 170 30 170 30 L 170 50 Q 160 60 150 60 Q 130 60 120 60 Q 100 60 90 60 Q 70 60 60 60 Q 50 60 40 60 Z
    M 40 60 Q 40 70 45 80 Q 45 90 50 100 Q 50 110 45 120 Q 45 130 40 140 Q 40 150 45 160 Q 45 170 50 180
    M 70 60 Q 70 70 75 80 Q 75 90 80 100 Q 80 110 75 120 Q 75 130 70 140 Q 70 150 75 160 Q 75 170 80 180
    M 100 60 Q 100 70 105 80 Q 105 90 110 100 Q 110 110 105 120 Q 105 130 100 140 Q 100 150 105 160 Q 105 170 110 180
    M 130 60 Q 130 70 135 80 Q 135 90 140 100 Q 140 110 135 120 Q 135 130 130 140 Q 130 150 135 160 Q 135 170 140 180
    M 160 60 Q 160 70 165 80 Q 165 90 170 100 Q 170 110 165 120 Q 165 130 160 140 Q 160 150 165 160 Q 165 170 170 180" 
    fill="#FF0000" stroke="none"/>
</svg>